<svg width="335" height="268" viewBox="0 0 335 268" fill="none" xmlns="http://www.w3.org/2000/svg">
<path d="M28.608 160.896C28.1813 160.896 27.8827 160.811 27.712 160.64C27.5413 160.469 27.52 160.235 27.648 159.936L46.784 101.12C45.376 102.997 43.8187 104.811 42.112 106.56C40.448 108.309 38.6133 109.973 36.608 111.552C34.6027 113.131 32.4267 114.709 30.08 116.288C29.696 116.587 29.3973 116.715 29.184 116.672C28.9707 116.587 28.7573 116.352 28.544 115.968C28.3307 115.669 28.2453 115.392 28.288 115.136C28.3733 114.88 28.544 114.667 28.8 114.496C31.4027 112.789 33.856 110.976 36.16 109.056C38.464 107.093 40.6187 105.024 42.624 102.848C44.6293 100.672 46.4213 98.4107 48 96.064C48.2133 95.7653 48.4267 95.552 48.64 95.424C48.896 95.2533 49.216 95.168 49.6 95.168C50.0693 95.168 50.3893 95.2747 50.56 95.488C50.7307 95.7013 50.752 96 50.624 96.384L45.056 113.6C46.848 110.741 48.768 108.181 50.816 105.92C52.864 103.616 54.976 101.653 57.152 100.032C59.3707 98.4107 61.5893 97.1733 63.808 96.32C66.0693 95.4667 68.288 95.04 70.464 95.04C72.5547 95.04 74.4107 95.4453 76.032 96.256C77.6533 97.0667 78.912 98.304 79.808 99.968C80.704 101.589 81.152 103.573 81.152 105.92C81.152 108.224 80.704 110.443 79.808 112.576C78.9547 114.709 77.7173 116.715 76.096 118.592C74.5173 120.469 72.64 122.197 70.464 123.776C68.288 125.355 65.8987 126.784 63.296 128.064C60.6933 129.301 57.9627 130.347 55.104 131.2C55.4027 132.267 55.7013 133.269 56 134.208C56.2987 135.104 56.5973 136.021 56.896 136.96C57.1947 137.899 57.5147 138.88 57.856 139.904C58.1973 140.885 58.56 141.995 58.944 143.232C59.7547 145.707 60.5013 147.84 61.184 149.632C61.9093 151.424 62.592 152.939 63.232 154.176C63.872 155.371 64.4907 156.309 65.088 156.992C65.728 157.675 66.368 158.165 67.008 158.464C67.648 158.72 68.3093 158.848 68.992 158.848C69.376 158.848 69.6107 158.976 69.696 159.232C69.824 159.445 69.8667 159.701 69.824 160C69.7813 160.256 69.6533 160.491 69.44 160.704C69.2267 160.96 68.9493 161.088 68.608 161.088C67.328 161.088 66.176 160.768 65.152 160.128C64.1707 159.488 63.232 158.528 62.336 157.248C61.44 155.925 60.5653 154.24 59.712 152.192C58.8587 150.101 57.9413 147.627 56.96 144.768C56.4907 143.445 56.0853 142.251 55.744 141.184C55.4027 140.117 55.0613 139.136 54.72 138.24C54.4213 137.301 54.1227 136.32 53.824 135.296C53.5253 134.272 53.184 133.12 52.8 131.84C51.904 131.925 51.0507 131.904 50.24 131.776C49.472 131.605 48.8747 131.328 48.448 130.944C48.0213 130.517 47.808 129.984 47.808 129.344C47.808 128.576 48.0853 127.979 48.64 127.552C49.1947 127.125 49.8987 126.912 50.752 126.912C51.4773 126.912 52.224 127.125 52.992 127.552C53.76 127.979 54.2933 128.533 54.592 129.216C57.2373 128.448 59.7547 127.467 62.144 126.272C64.5333 125.077 66.7307 123.755 68.736 122.304C70.7413 120.853 72.4693 119.275 73.92 117.568C75.4133 115.819 76.5653 113.984 77.376 112.064C78.1867 110.144 78.592 108.16 78.592 106.112C78.592 104.064 78.2293 102.379 77.504 101.056C76.7787 99.7333 75.776 98.7733 74.496 98.176C73.2587 97.536 71.7867 97.216 70.08 97.216C67.904 97.216 65.664 97.728 63.36 98.752C61.0987 99.7333 58.8587 101.141 56.64 102.976C54.464 104.811 52.352 107.008 50.304 109.568C48.2987 112.128 46.4427 114.944 44.736 118.016C43.072 121.088 41.6213 124.395 40.384 127.936L30.016 159.936C29.9307 160.235 29.7813 160.469 29.568 160.64C29.3973 160.811 29.0773 160.896 28.608 160.896ZM68.471 161.088C68.087 161.088 67.831 160.96 67.703 160.704C67.575 160.491 67.575 160.256 67.703 160C67.831 159.701 68.0443 159.445 68.343 159.232C68.6417 158.976 68.983 158.848 69.367 158.848C71.2443 158.848 73.5697 158.315 76.343 157.248C79.1163 156.139 82.2523 154.411 85.751 152.064C85.9643 151.936 86.1563 151.915 86.327 152C86.4977 152.085 86.6257 152.256 86.711 152.512C86.839 152.768 86.8817 153.024 86.839 153.28C86.7963 153.536 86.647 153.749 86.391 153.92C83.8737 155.584 81.5057 156.949 79.287 158.016C77.0257 159.083 74.999 159.851 73.207 160.32C71.3723 160.832 69.7937 161.088 68.471 161.088ZM85.559 152.128C86.2843 151.701 86.967 151.232 87.607 150.72C88.2897 150.208 88.9723 149.696 89.655 149.184C92.343 147.093 94.6043 145.131 96.439 143.296C98.2737 141.419 99.6603 139.627 100.599 137.92C101.538 136.171 102.007 134.485 102.007 132.864C102.007 131.712 101.73 130.773 101.175 130.048C100.62 129.323 99.767 128.96 98.615 128.96C98.231 128.96 97.9537 128.853 97.783 128.64C97.655 128.427 97.6123 128.171 97.655 127.872C97.7403 127.573 97.911 127.317 98.167 127.104C98.423 126.891 98.743 126.784 99.127 126.784C100.322 126.784 101.303 127.019 102.071 127.488C102.882 127.957 103.479 128.619 103.863 129.472C104.247 130.325 104.439 131.371 104.439 132.608C104.439 134.528 103.948 136.448 102.967 138.368C101.986 140.245 100.45 142.229 98.359 144.32C96.311 146.411 93.6443 148.693 90.359 151.168C89.719 151.637 89.079 152.107 88.439 152.576C87.799 153.045 87.159 153.515 86.519 153.984L85.559 152.128ZM94.1565 161.088C92.8338 161.088 91.6605 160.853 90.6365 160.384C89.6125 159.957 88.7165 159.339 87.9485 158.528C87.1805 157.675 86.5405 156.693 86.0285 155.584C85.5165 154.475 85.1325 153.28 84.8765 152C84.6205 150.677 84.4925 149.291 84.4925 147.84C84.4925 145.749 84.8125 143.488 85.4525 141.056C86.0498 138.624 86.9672 136.341 88.2045 134.208C89.4418 132.032 90.9778 130.261 92.8125 128.896C94.6045 127.488 96.7165 126.784 99.1485 126.784C99.5325 126.784 99.8098 126.891 99.9805 127.104C100.108 127.317 100.151 127.573 100.108 127.872C100.023 128.171 99.8525 128.427 99.5965 128.64C99.3405 128.853 99.0205 128.96 98.6365 128.96C96.6738 128.96 94.9672 129.621 93.5165 130.944C92.0232 132.224 90.8072 133.867 89.8685 135.872C88.8872 137.877 88.1618 139.947 87.6925 142.08C87.1805 144.213 86.9245 146.133 86.9245 147.84C86.9245 149.333 87.0738 150.741 87.3725 152.064C87.6712 153.387 88.1405 154.56 88.7805 155.584C89.3778 156.608 90.1672 157.419 91.1485 158.016C92.1298 158.571 93.3032 158.848 94.6685 158.848C96.6738 158.848 98.7432 158.165 100.876 156.8C102.967 155.392 105.378 153.088 108.108 149.888C110.797 146.645 113.997 142.272 117.709 136.768C117.922 136.469 118.157 136.363 118.413 136.448C118.711 136.533 118.925 136.704 119.053 136.96C119.223 137.216 119.223 137.472 119.053 137.728C116.194 142.123 113.613 145.813 111.309 148.8C109.047 151.787 106.956 154.197 105.036 156.032C103.074 157.824 101.218 159.125 99.4685 159.936C97.7192 160.704 95.9485 161.088 94.1565 161.088ZM115.213 193.216C113.207 193.216 111.693 192.683 110.669 191.616C109.687 190.549 109.197 189.227 109.197 187.648C109.197 186.24 109.495 184.768 110.093 183.232C110.733 181.739 111.629 180.224 112.781 178.688C113.975 177.152 115.426 175.552 117.133 173.888C118.839 172.267 120.759 170.581 122.893 168.832C123.917 168.064 124.941 167.296 125.965 166.528C126.989 165.803 127.991 165.077 128.973 164.352C129.954 163.627 130.914 162.944 131.853 162.304L137.613 144.704C135.522 148.501 133.453 151.616 131.405 154.048C129.399 156.437 127.437 158.208 125.517 159.36C123.639 160.512 121.805 161.088 120.013 161.088C118.605 161.088 117.346 160.704 116.237 159.936C115.17 159.168 114.338 158.08 113.741 156.672C113.143 155.221 112.845 153.536 112.845 151.616C112.845 149.653 113.143 147.563 113.741 145.344C114.381 143.083 115.298 140.864 116.493 138.688C117.687 136.469 119.138 134.464 120.845 132.672C122.594 130.88 124.578 129.451 126.797 128.384C129.015 127.317 131.447 126.784 134.093 126.784C135.031 126.784 135.991 126.891 136.973 127.104C137.997 127.275 138.978 127.552 139.917 127.936C140.898 128.32 141.815 128.789 142.669 129.344L143.053 128C143.181 127.659 143.351 127.424 143.565 127.296C143.778 127.125 144.098 127.04 144.525 127.04C145.037 127.04 145.335 127.189 145.421 127.488C145.549 127.744 145.57 128.043 145.485 128.384L129.229 178.432C128.589 180.309 127.821 182.123 126.925 183.872C126.071 185.621 125.069 187.2 123.917 188.608C122.807 190.016 121.506 191.125 120.013 191.936C118.562 192.789 116.962 193.216 115.213 193.216ZM115.469 190.976C117.218 190.976 118.818 190.357 120.269 189.12C121.719 187.883 122.999 186.24 124.109 184.192C125.218 182.187 126.135 180.032 126.861 177.728L130.765 165.76C130.082 166.229 129.399 166.72 128.717 167.232C128.034 167.787 127.33 168.32 126.605 168.832C125.879 169.387 125.154 169.941 124.429 170.496C122.295 172.288 120.439 173.952 118.861 175.488C117.282 177.067 115.981 178.56 114.957 179.968C113.933 181.376 113.165 182.677 112.653 183.872C112.141 185.109 111.885 186.283 111.885 187.392C111.885 188.075 112.013 188.672 112.269 189.184C112.525 189.739 112.909 190.165 113.421 190.464C113.975 190.805 114.658 190.976 115.469 190.976ZM120.397 158.848C122.189 158.848 124.173 157.973 126.349 156.224C128.567 154.475 130.893 151.829 133.325 148.288C135.799 144.747 138.274 140.331 140.749 135.04L141.965 131.328C140.301 130.347 138.807 129.728 137.485 129.472C136.162 129.173 134.903 129.024 133.709 129.024C131.49 129.024 129.421 129.515 127.501 130.496C125.623 131.435 123.917 132.715 122.381 134.336C120.887 135.957 119.607 137.771 118.541 139.776C117.474 141.739 116.663 143.744 116.109 145.792C115.554 147.84 115.277 149.781 115.277 151.616C115.277 153.024 115.469 154.283 115.853 155.392C116.237 156.459 116.813 157.312 117.581 157.952C118.349 158.549 119.287 158.848 120.397 158.848ZM133.693 163.712C133.437 163.883 133.224 163.904 133.053 163.776C132.84 163.648 132.691 163.456 132.605 163.2C132.52 162.987 132.499 162.731 132.542 162.432C132.584 162.133 132.733 161.92 132.99 161.792C135.464 160.043 137.811 158.336 140.03 156.672C142.248 155.008 144.381 153.259 146.429 151.424C148.435 149.589 150.376 147.605 152.254 145.472C154.174 143.339 156.03 140.992 157.822 138.432C159.656 135.829 161.47 132.907 163.262 129.664C163.475 129.408 163.71 129.28 163.966 129.28C164.222 129.237 164.414 129.323 164.542 129.536C164.712 129.749 164.691 130.048 164.478 130.432C162.771 133.717 161.022 136.704 159.23 139.392C157.438 142.037 155.56 144.491 153.598 146.752C151.678 148.971 149.672 151.04 147.581 152.96C145.491 154.88 143.293 156.715 140.99 158.464C138.685 160.213 136.253 161.963 133.693 163.712ZM157.694 160.96C156.243 160.96 155.219 160.384 154.622 159.232C154.067 158.037 154.238 156.139 155.134 153.536L163.454 128C163.582 127.659 163.731 127.424 163.902 127.296C164.072 127.125 164.392 127.04 164.862 127.04C165.288 127.04 165.587 127.147 165.758 127.36C165.971 127.531 166.035 127.787 165.95 128.128L157.63 153.408C157.032 155.243 156.755 156.587 156.798 157.44C156.84 158.293 157.288 158.72 158.142 158.72C159.038 158.72 159.934 158.421 160.83 157.824C161.768 157.184 162.643 156.437 163.454 155.584C164.264 154.688 164.947 153.899 165.502 153.216C165.758 152.917 165.971 152.768 166.142 152.768C166.355 152.725 166.568 152.811 166.782 153.024C167.123 153.28 167.294 153.515 167.294 153.728C167.294 153.899 167.208 154.091 167.038 154.304C166.483 155.115 165.715 156.053 164.734 157.12C163.795 158.144 162.707 159.04 161.47 159.808C160.275 160.576 159.016 160.96 157.694 160.96ZM168.638 115.84C167.955 115.84 167.4 115.691 166.974 115.392C166.547 115.093 166.333 114.624 166.333 113.984C166.333 113.045 166.611 112.213 167.166 111.488C167.763 110.763 168.552 110.4 169.534 110.4C170.216 110.4 170.771 110.549 171.198 110.848C171.624 111.147 171.838 111.616 171.838 112.256C171.838 113.152 171.539 113.984 170.942 114.752C170.387 115.477 169.619 115.84 168.638 115.84ZM178.634 161.344C177.397 161.344 176.287 161.109 175.306 160.64C174.367 160.213 173.621 159.616 173.066 158.848C172.554 158.037 172.298 157.184 172.298 156.288C172.298 155.008 172.661 153.92 173.386 153.024C174.111 152.085 175.114 151.339 176.394 150.784C177.717 150.229 179.253 149.952 181.002 149.952C183.178 149.952 185.29 150.165 187.338 150.592C189.429 151.019 191.455 151.573 193.418 152.256C195.423 152.896 197.365 153.621 199.242 154.432C201.162 155.2 203.018 155.904 204.81 156.544C206.602 157.184 208.351 157.739 210.058 158.208C211.765 158.635 213.429 158.848 215.05 158.848C215.391 158.848 215.626 158.976 215.754 159.232C215.882 159.445 215.903 159.701 215.818 160C215.733 160.256 215.562 160.491 215.306 160.704C215.05 160.96 214.73 161.088 214.346 161.088C212.725 161.088 211.039 160.875 209.29 160.448C207.583 160.021 205.813 159.488 203.978 158.848C202.186 158.165 200.351 157.44 198.474 156.672C196.639 155.904 194.741 155.2 192.778 154.56C190.858 153.877 188.917 153.323 186.954 152.896C184.991 152.469 182.965 152.256 180.874 152.256C179.722 152.256 178.677 152.384 177.738 152.64C176.842 152.896 176.138 153.301 175.626 153.856C175.114 154.411 174.858 155.093 174.858 155.904C174.858 156.8 175.221 157.568 175.946 158.208C176.714 158.848 177.674 159.168 178.826 159.168C180.063 159.168 181.194 158.763 182.218 157.952C183.285 157.141 184.309 155.883 185.29 154.176C186.271 152.427 187.231 150.144 188.17 147.328L196.106 123.456C197.386 119.573 198.815 115.925 200.394 112.512C201.973 109.099 203.743 106.091 205.706 103.488C207.669 100.843 209.781 98.7733 212.042 97.28C214.346 95.7867 216.799 95.04 219.402 95.04C220.981 95.04 222.389 95.36 223.626 96C224.863 96.64 225.823 97.536 226.506 98.688C227.231 99.7973 227.594 101.163 227.594 102.784C227.594 105.003 227.039 107.029 225.93 108.864C224.863 110.699 223.391 112.299 221.514 113.664C219.637 115.029 217.546 116.075 215.242 116.8C212.938 117.483 210.549 117.824 208.074 117.824C205.215 117.824 202.591 117.589 200.202 117.12C197.855 116.608 195.594 115.861 193.418 114.88C191.242 113.899 189.045 112.725 186.826 111.36C186.442 111.147 186.207 110.955 186.122 110.784C186.079 110.571 186.165 110.272 186.378 109.888C186.591 109.504 186.826 109.312 187.082 109.312C187.338 109.312 187.615 109.376 187.914 109.504C190.047 110.827 192.138 111.957 194.186 112.896C196.277 113.835 198.453 114.539 200.714 115.008C202.975 115.477 205.471 115.712 208.202 115.712C210.25 115.712 212.255 115.413 214.218 114.816C216.181 114.176 217.973 113.301 219.594 112.192C221.215 111.04 222.517 109.696 223.498 108.16C224.479 106.581 224.97 104.853 224.97 102.976C224.97 101.696 224.714 100.629 224.202 99.776C223.733 98.9227 223.05 98.304 222.154 97.92C221.258 97.4933 220.277 97.28 219.21 97.28C216.991 97.28 214.879 97.984 212.874 99.392C210.911 100.8 209.034 102.741 207.242 105.216C205.493 107.648 203.871 110.485 202.378 113.728C200.927 116.928 199.583 120.384 198.346 124.096L190.41 147.968C189.343 151.253 188.17 153.877 186.89 155.84C185.653 157.803 184.351 159.211 182.986 160.064C181.663 160.917 180.213 161.344 178.634 161.344ZM214.474 161.088C214.09 161.088 213.813 160.96 213.642 160.704C213.471 160.491 213.429 160.256 213.514 160C213.557 159.701 213.727 159.445 214.026 159.232C214.325 158.976 214.73 158.848 215.242 158.848C216.309 158.848 217.567 158.421 219.018 157.568C220.426 156.672 221.941 155.413 223.562 153.792C225.183 152.171 226.805 150.229 228.426 147.968C230.09 145.707 231.669 143.189 233.162 140.416C233.333 140.117 233.546 139.989 233.802 140.032C234.058 140.032 234.271 140.139 234.442 140.352C234.655 140.565 234.698 140.821 234.57 141.12C233.119 143.979 231.541 146.624 229.834 149.056C228.17 151.488 226.463 153.6 224.714 155.392C222.922 157.184 221.173 158.592 219.466 159.616C217.717 160.597 216.053 161.088 214.474 161.088ZM237.45 161.088C236.042 161.088 234.783 160.704 233.674 159.936C232.607 159.168 231.775 158.08 231.178 156.672C230.581 155.221 230.282 153.536 230.282 151.616C230.282 149.739 230.581 147.691 231.178 145.472C231.818 143.253 232.714 141.056 233.866 138.88C235.061 136.661 236.511 134.635 238.218 132.8C239.967 130.965 241.951 129.515 244.17 128.448C246.389 127.339 248.842 126.784 251.53 126.784C253.023 126.784 254.581 127.04 256.202 127.552C257.823 128.021 259.274 128.725 260.554 129.664L259.85 131.648C258.101 130.539 256.522 129.835 255.114 129.536C253.706 129.195 252.383 129.024 251.146 129.024C248.927 129.024 246.858 129.515 244.938 130.496C243.061 131.435 241.354 132.715 239.818 134.336C238.325 135.957 237.045 137.771 235.978 139.776C234.911 141.739 234.101 143.744 233.546 145.792C232.991 147.84 232.714 149.781 232.714 151.616C232.714 153.024 232.906 154.283 233.29 155.392C233.674 156.459 234.25 157.312 235.018 157.952C235.786 158.549 236.725 158.848 237.834 158.848C239.626 158.848 241.631 157.952 243.85 156.16C246.111 154.325 248.501 151.595 251.018 147.968C253.535 144.299 256.053 139.712 258.57 134.208L259.146 136.64C256.501 142.315 253.919 146.965 251.402 150.592C248.927 154.176 246.517 156.821 244.17 158.528C241.866 160.235 239.626 161.088 237.45 161.088ZM255.114 161.088C254.389 161.088 253.749 160.939 253.194 160.64C252.639 160.384 252.213 159.957 251.914 159.36C251.615 158.763 251.487 157.995 251.53 157.056C251.573 156.075 251.807 154.923 252.234 153.6L260.49 128C260.618 127.659 260.789 127.424 261.002 127.296C261.258 127.125 261.599 127.04 262.026 127.04C262.495 127.04 262.794 127.168 262.922 127.424C263.093 127.68 263.114 127.979 262.986 128.32L254.666 153.536C254.069 155.371 253.834 156.715 253.962 157.568C254.133 158.421 254.773 158.848 255.882 158.848C256.223 158.848 256.458 158.976 256.586 159.232C256.714 159.445 256.735 159.701 256.65 160C256.607 160.256 256.458 160.491 256.202 160.704C255.946 160.96 255.583 161.088 255.114 161.088ZM255.099 161.088C254.715 161.088 254.459 160.96 254.331 160.704C254.203 160.491 254.203 160.256 254.331 160C254.416 159.701 254.608 159.445 254.907 159.232C255.163 158.976 255.483 158.848 255.867 158.848C256.848 158.848 257.83 158.571 258.811 158.016C259.792 157.461 260.859 156.587 262.011 155.392C263.163 154.155 264.464 152.533 265.915 150.528C267.366 148.523 269.051 146.069 270.971 143.168C273.019 140.096 274.811 137.515 276.347 135.424C277.926 133.333 279.334 131.648 280.571 130.368C281.851 129.088 283.024 128.171 284.091 127.616C285.158 127.061 286.246 126.784 287.355 126.784C287.739 126.784 287.995 126.891 288.123 127.104C288.251 127.317 288.272 127.573 288.187 127.872C288.102 128.171 287.91 128.427 287.611 128.64C287.355 128.853 287.035 128.96 286.651 128.96C285.883 128.96 285.072 129.216 284.219 129.728C283.366 130.24 282.427 131.072 281.403 132.224C280.379 133.333 279.184 134.827 277.819 136.704C276.454 138.581 274.854 140.907 273.019 143.68C270.886 146.88 268.987 149.611 267.323 151.872C265.702 154.091 264.23 155.883 262.907 157.248C261.542 158.571 260.24 159.531 259.003 160.128C257.766 160.768 256.464 161.088 255.099 161.088ZM297.787 161.088C296.379 161.088 295.206 160.491 294.267 159.296C293.371 158.101 292.56 156.352 291.835 154.048C291.152 151.744 290.406 148.949 289.595 145.664L273.979 160.128C273.808 160.341 273.616 160.491 273.403 160.576C273.232 160.704 273.062 160.768 272.891 160.768C272.464 160.768 272.102 160.555 271.803 160.128C271.504 159.701 271.654 159.211 272.251 158.656L288.955 143.04C288.4 140.693 287.867 138.645 287.355 136.896C286.886 135.147 286.416 133.696 285.947 132.544C285.478 131.349 284.966 130.453 284.411 129.856C283.899 129.259 283.28 128.96 282.555 128.96C282.214 128.96 281.958 128.853 281.787 128.64C281.659 128.427 281.616 128.171 281.659 127.872C281.702 127.573 281.851 127.317 282.107 127.104C282.363 126.891 282.726 126.784 283.195 126.784C284.176 126.784 285.03 127.125 285.755 127.808C286.523 128.448 287.184 129.387 287.739 130.624C288.336 131.861 288.891 133.376 289.403 135.168C289.915 136.917 290.448 138.923 291.003 141.184L305.595 127.488C305.808 127.275 306.022 127.104 306.235 126.976C306.448 126.848 306.64 126.784 306.811 126.784C307.067 126.784 307.323 126.891 307.579 127.104C307.835 127.275 308.006 127.509 308.091 127.808C308.176 128.107 308.048 128.405 307.707 128.704L291.579 143.744C292.134 146.091 292.646 148.203 293.115 150.08C293.627 151.957 294.139 153.557 294.651 154.88C295.163 156.16 295.696 157.141 296.251 157.824C296.848 158.507 297.531 158.848 298.299 158.848C299.536 158.848 300.71 158.336 301.819 157.312C302.971 156.288 303.974 155.243 304.827 154.176C305.04 153.877 305.232 153.728 305.403 153.728C305.616 153.685 305.851 153.771 306.107 153.984C306.448 154.24 306.598 154.475 306.555 154.688C306.555 154.859 306.47 155.051 306.299 155.264C305.744 156.075 305.019 156.928 304.123 157.824C303.27 158.72 302.31 159.488 301.243 160.128C300.176 160.768 299.024 161.088 297.787 161.088Z" fill="#276A8C"/>
<path d="M1 236.5C16 214 39 203.5 57.5 200.5C76 197.5 97.1426 199.566 121.5 205.5C138.154 209.557 147.132 214.07 162.75 220.5C178.497 226.983 192.633 236.797 209 241.5C223.902 245.782 232 246.871 247.5 246.5C269.207 245.981 275.987 243.023 295.5 233.5C311.26 225.809 331 206 331 206" stroke="#276A8C" stroke-width="2"/>
<path d="M3 256.365C18 233.865 41 223.365 59.5 220.365C78 217.365 99.1426 219.432 123.5 225.365C140.154 229.422 149.132 233.935 164.75 240.365C180.497 246.848 194.633 256.662 211 261.365C225.902 265.647 234 266.736 249.5 266.365C271.207 265.846 277.987 262.888 297.5 253.365C313.26 245.674 333 225.865 333 225.865" stroke="#276A8C" stroke-width="2"/>
<path d="M2 38.3652C17 15.8652 40 5.36516 58.5 2.36519C77 -0.634785 98.1426 1.43154 122.5 7.36516C139.154 11.4222 148.132 15.9354 163.75 22.3651C179.497 28.8479 193.633 38.6624 210 43.3652C224.902 47.6468 233 48.7358 248.5 48.3652C270.207 47.8462 276.987 44.8881 296.5 35.3652C312.26 27.6738 332 7.86514 332 7.86514" stroke="#276A8C" stroke-width="2"/>
<path d="M4 58.2303C19 35.7304 42 25.2303 60.5 22.2303C79 19.2304 100.143 21.2967 124.5 27.2303C141.154 31.2874 150.132 35.8006 165.75 42.2303C181.497 48.7131 195.633 58.5276 212 63.2303C226.902 67.512 235 68.601 250.5 68.2303C272.207 67.7113 278.987 64.7533 298.5 55.2303C314.26 47.5389 334 27.7303 334 27.7303" stroke="#276A8C" stroke-width="2"/>
</svg>
