<svg width="31" height="31" viewBox="0 0 31 31" fill="none" xmlns="http://www.w3.org/2000/svg">
<path fill-rule="evenodd" clip-rule="evenodd" d="M3.5 12.5C3.5 17.7467 7.75329 22 13 22C18.2467 22 22.5 17.7467 22.5 12.5C22.5 7.25329 18.2467 3 13 3C7.75329 3 3.5 7.25329 3.5 12.5ZM0.5 12.5C0.5 19.4036 6.09644 25 13 25C15.8812 25 18.5347 24.0252 20.6488 22.3874L28.4474 30.0687C29.0376 30.65 29.9873 30.6428 30.5687 30.0526C31.15 29.4624 31.1428 28.5127 30.5526 27.9313L22.7843 20.28C24.4842 18.145 25.5 15.4411 25.5 12.5C25.5 5.59644 19.9036 0 13 0C6.09644 0 0.5 5.59644 0.5 12.5Z" fill="#474747"/>
</svg>
